<?xml version="1.0" encoding="UTF-8"?>
<!DOCTYPE svg PUBLIC "-//W3C//DTD SVG 1.1//EN" "http://www.w3.org/Graphics/SVG/1.1/DTD/svg11.dtd">
<svg version="1.2" width="177.8mm" height="60.96mm" viewBox="0 0 17780 6096" preserveAspectRatio="xMidYMid" fill-rule="evenodd" clip-path="url(#presentation_clip_path)" stroke-width="28.222" stroke-linejoin="round" xmlns="http://www.w3.org/2000/svg" xmlns:ooo="http://xml.openoffice.org/svg/export" xmlns:xlink="http://www.w3.org/1999/xlink" xml:space="preserve">
 <defs class="ClipPathGroup">
  <clipPath id="presentation_clip_path" clipPathUnits="userSpaceOnUse">
   <rect x="0" y="0" width="17780" height="6096"/>
  </clipPath>
 </defs>
 <defs class="TextShapeIndex">
  <g ooo:slide="id1" ooo:id-list="id3 id4 id5 id6 id7 id8 id9 id10 id11 id12 id13 id14 id15 id16 id17 id18 id19 id20 id21"/>
 </defs>
 <defs class="EmbeddedBulletChars">
  <g id="bullet-char-template(57356)" transform="scale(0.00048828125,-0.00048828125)">
   <path d="M 580,1141 L 1163,571 580,0 -4,571 580,1141 Z"/>
  </g>
  <g id="bullet-char-template(57354)" transform="scale(0.00048828125,-0.00048828125)">
   <path d="M 8,1128 L 1137,1128 1137,0 8,0 8,1128 Z"/>
  </g>
  <g id="bullet-char-template(10146)" transform="scale(0.00048828125,-0.00048828125)">
   <path d="M 174,0 L 602,739 174,1481 1456,739 174,0 Z M 1358,739 L 309,1346 659,739 1358,739 Z"/>
  </g>
  <g id="bullet-char-template(10132)" transform="scale(0.00048828125,-0.00048828125)">
   <path d="M 2015,739 L 1276,0 717,0 1260,543 174,543 174,936 1260,936 717,1481 1274,1481 2015,739 Z"/>
  </g>
  <g id="bullet-char-template(10007)" transform="scale(0.00048828125,-0.00048828125)">
   <path d="M 0,-2 C -7,14 -16,27 -25,37 L 356,567 C 262,823 215,952 215,954 215,979 228,992 255,992 264,992 276,990 289,987 310,991 331,999 354,1012 L 381,999 492,748 772,1049 836,1024 860,1049 C 881,1039 901,1025 922,1006 886,937 835,863 770,784 769,783 710,716 594,584 L 774,223 C 774,196 753,168 711,139 L 727,119 C 717,90 699,76 672,76 641,76 570,178 457,381 L 164,-76 C 142,-110 111,-127 72,-127 30,-127 9,-110 8,-76 1,-67 -2,-52 -2,-32 -2,-23 -1,-13 0,-2 Z"/>
  </g>
  <g id="bullet-char-template(10004)" transform="scale(0.00048828125,-0.00048828125)">
   <path d="M 285,-33 C 182,-33 111,30 74,156 52,228 41,333 41,471 41,549 55,616 82,672 116,743 169,778 240,778 293,778 328,747 346,684 L 369,508 C 377,444 397,411 428,410 L 1163,1116 C 1174,1127 1196,1133 1229,1133 1271,1133 1292,1118 1292,1087 L 1292,965 C 1292,929 1282,901 1262,881 L 442,47 C 390,-6 338,-33 285,-33 Z"/>
  </g>
  <g id="bullet-char-template(9679)" transform="scale(0.00048828125,-0.00048828125)">
   <path d="M 813,0 C 632,0 489,54 383,161 276,268 223,411 223,592 223,773 276,916 383,1023 489,1130 632,1184 813,1184 992,1184 1136,1130 1245,1023 1353,916 1407,772 1407,592 1407,412 1353,268 1245,161 1136,54 992,0 813,0 Z"/>
  </g>
  <g id="bullet-char-template(8226)" transform="scale(0.00048828125,-0.00048828125)">
   <path d="M 346,457 C 273,457 209,483 155,535 101,586 74,649 74,723 74,796 101,859 155,911 209,963 273,989 346,989 419,989 480,963 531,910 582,859 608,796 608,723 608,648 583,586 532,535 482,483 420,457 346,457 Z"/>
  </g>
  <g id="bullet-char-template(8211)" transform="scale(0.00048828125,-0.00048828125)">
   <path d="M -4,459 L 1135,459 1135,606 -4,606 -4,459 Z"/>
  </g>
 </defs>
 <defs class="TextEmbeddedBitmaps"/>
 <g>
  <g id="id2" class="Master_Slide">
   <g id="bg-id2" class="Background"/>
   <g id="bo-id2" class="BackgroundObjects"/>
  </g>
 </g>
 <g class="SlideGroup">
  <g>
   <g id="id1" class="Slide" clip-path="url(#presentation_clip_path)">
    <g class="Page">
     <g class="com.sun.star.drawing.CustomShape">
      <g id="id3">
       <path fill="none" stroke="rgb(0,0,0)" stroke-width="50" d="M 271,1650 L 1671,1650 1671,3225 1496,3450 271,3450 271,1650 Z"/>
       <path fill="none" stroke="rgb(0,0,0)" stroke-width="50" d="M 1496,3450 L 1542,3225 C 1586,3258 1584,3239 1671,3225 L 1496,3450 Z"/>
       <text class="TextShape"><tspan class="TextParagraph" font-family="Arial, sans-serif" font-size="388px" font-weight="400"><tspan class="TextPosition" x="431" y="2580"><tspan fill="rgb(0,0,0)" stroke="none">ABCD</tspan></tspan></tspan></text>
      </g>
     </g>
     <g class="com.sun.star.drawing.CustomShape">
      <g id="id4">
       <path fill="none" stroke="rgb(0,0,0)" stroke-width="50" d="M 4071,1650 L 5471,1650 5471,3225 5296,3450 4071,3450 4071,1650 Z"/>
       <path fill="none" stroke="rgb(0,0,0)" stroke-width="50" d="M 5296,3450 L 5342,3225 C 5386,3258 5384,3239 5471,3225 L 5296,3450 Z"/>
       <text class="TextShape"><tspan class="TextParagraph" font-family="Arial, sans-serif" font-size="388px" font-weight="400"><tspan class="TextPosition" x="4231" y="2580"><tspan fill="rgb(0,0,0)" stroke="none">EFGH</tspan></tspan></tspan></text>
      </g>
     </g>
     <g class="com.sun.star.drawing.CustomShape">
      <g id="id5">
       <path fill="none" stroke="rgb(0,0,0)" stroke-width="50" d="M 8271,50 L 9671,50 9671,1625 9496,1850 8271,1850 8271,50 Z"/>
       <path fill="none" stroke="rgb(0,0,0)" stroke-width="50" d="M 9496,1850 L 9542,1625 C 9586,1658 9584,1639 9671,1625 L 9496,1850 Z"/>
       <text class="TextShape"><tspan class="TextParagraph" font-family="Arial, sans-serif" font-size="388px" font-weight="400"><tspan class="TextPosition" x="8584" y="980"><tspan fill="rgb(0,0,0)" stroke="none">IJKL</tspan></tspan></tspan></text>
      </g>
     </g>
     <g class="com.sun.star.drawing.CustomShape">
      <g id="id6">
       <path fill="none" stroke="rgb(0,0,0)" stroke-width="50" d="M 8271,3350 L 9671,3350 9671,4925 9496,5150 8271,5150 8271,3350 Z"/>
       <path fill="none" stroke="rgb(0,0,0)" stroke-width="50" d="M 9496,5150 L 9542,4925 C 9586,4958 9584,4939 9671,4925 L 9496,5150 Z"/>
       <text class="TextShape"><tspan class="TextParagraph" font-family="Arial, sans-serif" font-size="388px" font-weight="400"><tspan class="TextPosition" x="8389" y="4280"><tspan fill="rgb(0,0,0)" stroke="none">MNOP</tspan></tspan></tspan></text>
      </g>
     </g>
     <g class="com.sun.star.drawing.LineShape">
      <g id="id7">
       <path fill="none" stroke="rgb(0,0,0)" d="M 2300,2600 L 3070,2600"/>
       <path fill="rgb(0,0,0)" stroke="none" d="M 3500,2600 L 3050,2450 3050,2750 3500,2600 Z"/>
      </g>
     </g>
     <g class="com.sun.star.drawing.LineShape">
      <g id="id8">
       <path fill="none" stroke="rgb(0,0,0)" d="M 6100,2600 L 7423,4171"/>
       <path fill="rgb(0,0,0)" stroke="none" d="M 7700,4500 L 7525,4059 7295,4252 7700,4500 Z"/>
      </g>
     </g>
     <g class="com.sun.star.drawing.LineShape">
      <g id="id9">
       <path fill="none" stroke="rgb(0,0,0)" d="M 6100,2600 L 7334,1037"/>
       <path fill="rgb(0,0,0)" stroke="none" d="M 7600,700 L 7203,960 7439,1146 7600,700 Z"/>
      </g>
     </g>
     <g class="com.sun.star.drawing.TextShape">
      <g id="id10">
       <text class="TextShape"><tspan class="TextParagraph" font-family="Arial, sans-serif" font-size="388px" font-weight="400"><tspan class="TextPosition" x="8416" y="5793"><tspan fill="rgb(0,0,0)" stroke="none">87fe65</tspan></tspan></tspan></text>
      </g>
     </g>
     <g class="com.sun.star.drawing.TextShape">
      <g id="id11">
       <text class="TextShape"><tspan class="TextParagraph" font-family="Arial, sans-serif" font-size="388px" font-weight="400"><tspan class="TextPosition" x="8216" y="2494"><tspan fill="rgb(0,0,0)" stroke="none">34cd56</tspan></tspan></tspan></text>
      </g>
     </g>
     <g class="com.sun.star.drawing.TextShape">
      <g id="id12">
       <text class="TextShape"><tspan class="TextParagraph" font-family="Arial, sans-serif" font-size="388px" font-weight="400"><tspan class="TextPosition" x="4016" y="4295"><tspan fill="rgb(0,0,0)" stroke="none">9b8765</tspan></tspan></tspan></text>
      </g>
     </g>
     <g class="com.sun.star.drawing.TextShape">
      <g id="id13">
       <text class="TextShape"><tspan class="TextParagraph" font-family="Arial, sans-serif" font-size="388px" font-weight="400"><tspan class="TextPosition" x="316" y="4296"><tspan fill="rgb(0,0,0)" stroke="none">1a2345</tspan></tspan></tspan></text>
      </g>
     </g>
     <g class="com.sun.star.drawing.TextShape">
      <g id="id14">
       <path fill="rgb(221,221,221)" stroke="none" d="M 10996,1200 L 10324,1200 10324,517 11668,517 11668,1200 10996,1200 Z"/>
       <text class="TextShape"><tspan class="TextParagraph" font-family="Arial, sans-serif" font-size="388px" font-style="italic" font-weight="400"><tspan class="TextPosition" x="10574" y="993"><tspan fill="rgb(0,0,0)" stroke="none">Alice</tspan></tspan></tspan></text>
      </g>
     </g>
     <g class="com.sun.star.drawing.TextShape">
      <g id="id15">
       <path fill="rgb(221,221,221)" stroke="none" d="M 11000,4500 L 10300,4500 10300,3817 11700,3817 11700,4500 11000,4500 Z"/>
       <text class="TextShape"><tspan class="TextParagraph" font-family="Arial, sans-serif" font-size="388px" font-style="italic" font-weight="400"><tspan class="TextPosition" x="10550" y="4293"><tspan fill="rgb(0,0,0)" stroke="none">Bob</tspan></tspan></tspan></text>
      </g>
     </g>
     <g class="com.sun.star.drawing.LineShape">
      <g id="id16">
       <path fill="none" stroke="rgb(0,102,255)" d="M 12827,4328 L 12777,1928"/>
       <path fill="rgb(0,102,255)" stroke="none" d="M 12768,1498 L 12627,1951 12927,1945 12768,1498 Z"/>
      </g>
     </g>
     <g class="com.sun.star.drawing.CustomShape">
      <g id="id17">
       <path fill="none" stroke="rgb(0,0,0)" stroke-width="50" d="M 13779,58 L 15179,58 15179,1633 15004,1858 13779,1858 13779,58 Z"/>
       <path fill="none" stroke="rgb(0,0,0)" stroke-width="50" d="M 15004,1858 L 15050,1633 C 15094,1666 15092,1647 15179,1633 L 15004,1858 Z"/>
       <text class="TextShape"><tspan class="TextParagraph" font-family="Arial, sans-serif" font-size="388px" font-weight="400"><tspan class="TextPosition" x="13928" y="988"><tspan fill="rgb(0,0,0)" stroke="none">QRXY</tspan></tspan></tspan></text>
      </g>
     </g>
     <g class="com.sun.star.drawing.TextShape">
      <g id="id18">
       <text class="TextShape"><tspan class="TextParagraph" font-family="Arial, sans-serif" font-size="388px" font-weight="400"><tspan class="TextPosition" x="13824" y="2504"><tspan fill="rgb(0,0,0)" stroke="none">9d3a29</tspan></tspan></tspan></text>
      </g>
     </g>
     <g class="com.sun.star.drawing.LineShape">
      <g id="id19">
       <path fill="none" stroke="rgb(0,0,0)" d="M 12108,1008 L 12878,1008"/>
       <path fill="rgb(0,0,0)" stroke="none" d="M 13308,1008 L 12858,858 12858,1158 13308,1008 Z"/>
      </g>
     </g>
     <g class="com.sun.star.drawing.TextShape">
      <g id="id20">
       <path fill="rgb(221,221,221)" stroke="none" d="M 16504,1208 L 15832,1208 15832,525 17176,525 17176,1208 16504,1208 Z"/>
       <text class="TextShape"><tspan class="TextParagraph" font-family="Arial, sans-serif" font-size="388px" font-style="italic" font-weight="400"><tspan class="TextPosition" x="16082" y="1001"><tspan fill="rgb(0,0,0)" stroke="none">Alice</tspan></tspan></tspan></text>
      </g>
     </g>
     <g class="com.sun.star.drawing.LineShape">
      <g id="id21">
       <path fill="none" stroke="rgb(0,102,255)" d="M 12827,4327 L 11938,4327"/>
      </g>
     </g>
    </g>
   </g>
  </g>
 </g>
</svg>